# xmcd CD database file
#
# Track frame offsets:
#	150
#	42159
#	60737
#	82831
#	96903
#	115051
#	131754
#	152919
#	174292
#	185838
#	215859
#	230263
#	270407
#	293362
#
# Disc length: 4604 seconds
#
# Revision: 0
# Processed by: cddbd v1.4PL0 Copyright (c) Steve Scherf et al.
# Submitted via: Feurio! 1.64 - http://www.feurio.com
#
DISCID=be11fa0e
DTITLE=Arny Kay - Burn Out Blues
DYEAR=1900
DGENRE=
TTITLE0=Voodoo Chile
TTITLE1=Standing At The Corner
TTITLE2=Dollar
TTITLE3=Jeannie Jeannie
TTITLE4=Death Ride
TTITLE5=Serve Somebody
TTITLE6=It`s Not My Turn
TTITLE7=Retro Blues
TTITLE8=Can You See Me
TTITLE9=Red House
TTITLE10=Purple Haze
TTITLE11=Highway Ride
TTITLE12=I Want Your Love
TTITLE13=Blues On My Trail
EXTD=
EXTT0=
EXTT1=
EXTT2=
EXTT3=
EXTT4=
EXTT5=
EXTT6=
EXTT7=
EXTT8=
EXTT9=
EXTT10=
EXTT11=
EXTT12=
EXTT13=
PLAYORDER=
